<svg width="40" height="40" viewBox="0 0 40 40" fill="none" xmlns="http://www.w3.org/2000/svg">
<path d="M35.9999 20.48C36.2399 11.32 28.8799 3.87997 19.7599 3.99997C10.9999 4.11997 3.91994 11.36 3.99994 20.12C4.03994 26.4 7.71994 31.8 12.9999 34.4C13.3199 34.56 13.6799 34.32 13.6399 33.96C13.5999 32.92 13.6399 31.84 13.8399 30.96C14.0399 30.08 14.8399 26.72 15.3599 24.52C15.5999 23.44 15.6399 22.32 15.4399 21.24C15.3599 20.88 15.3199 20.48 15.3199 20C15.3199 17.64 16.6799 15.88 18.3999 15.88C19.8399 15.88 20.5599 16.96 20.5599 18.28C20.5599 19.72 19.6399 21.92 19.1599 23.96C18.7599 25.64 19.9999 27.04 21.6799 27.04C24.7199 27.04 27.0399 23.84 27.0399 19.24C27.0399 15.16 24.1199 12.32 19.9199 12.32C15.0799 12.32 12.2399 15.96 12.2399 19.72C12.2399 21.2 12.7999 22.76 13.5199 23.6C13.6399 23.76 13.6799 23.92 13.6399 24.08C13.5199 24.6 13.2399 25.76 13.1599 26C13.0799 26.32 12.9199 26.36 12.5999 26.24C10.4799 25.2 9.11994 22.08 9.11994 19.6C9.11994 14.24 12.9999 9.31997 20.3599 9.31997C26.2399 9.31997 30.8399 13.52 30.8399 19.16C30.8399 25.04 27.1599 29.72 21.9999 29.72C20.6399 29.72 19.3599 29.16 18.5999 28.4C18.3599 28.16 17.9599 28.28 17.8799 28.6C17.5999 29.6 17.1999 31.28 17.0399 31.8C16.7999 32.76 16.2799 33.88 15.7199 34.88C15.5599 35.12 15.7199 35.48 15.9999 35.52C17.3199 35.84 18.6799 36.04 20.0799 36C28.5599 35.92 35.7599 28.88 35.9999 20.48Z" fill="white"/>
</svg>
