<svg width="234" height="46" viewBox="0 0 234 46" fill="none" xmlns="http://www.w3.org/2000/svg">
<path d="M60.5641 12.2979V39.1589H55.5044V12.2979H47.2344V7.99844H68.7916V12.2979H60.5641Z" fill="white"/>
<path d="M73.3199 22.1952C73.816 20.8614 74.4679 19.8752 75.2758 19.2366C76.0978 18.5981 77.1112 18.2788 78.3159 18.2788C78.9679 18.2788 79.6057 18.3569 80.2293 18.513C80.8671 18.6691 81.4907 18.8961 82.1001 19.1941L80.4419 23.1104C80.045 22.8266 79.6128 22.6209 79.145 22.4932C78.6915 22.3513 78.1813 22.2803 77.6144 22.2803C76.0837 22.2803 74.9853 22.8976 74.3191 24.1321C73.653 25.3524 73.3199 27.4099 73.3199 30.3046V39.1589H68.7066V18.9387H73.3199V22.1952Z" fill="white"/>
<path d="M103.7 39.1589H99.0866V36.5409C98.2645 37.7045 97.3008 38.5701 96.1953 39.1376C95.1039 39.7052 93.8496 39.989 92.4323 39.989C89.5835 39.989 87.3371 39.017 85.693 37.073C84.0631 35.1149 83.2481 32.4401 83.2481 29.0488C83.2481 25.8277 84.0844 23.231 85.7568 21.2587C87.4292 19.2721 89.6119 18.2788 92.3047 18.2788C93.9488 18.2788 95.352 18.6265 96.5141 19.3218C97.6905 20.0029 98.548 20.9891 99.0866 22.2803V18.9812H103.7V39.1589ZM99.2141 29.0062C99.2141 26.9203 98.7251 25.2956 97.7472 24.1321C96.7834 22.9685 95.4299 22.3868 93.6866 22.3868C91.9433 22.3868 90.5685 22.9898 89.5623 24.1959C88.5701 25.3879 88.0741 27.0481 88.0741 29.1765C88.0741 31.3191 88.556 32.9722 89.5197 34.1358C90.4835 35.2993 91.8441 35.8811 93.6016 35.8811C95.2598 35.8811 96.6063 35.2497 97.6409 33.9868C98.6897 32.7239 99.2141 31.0637 99.2141 29.0062Z" fill="white"/>
<path d="M117.157 40.3721L106.591 18.9812H111.63L116.03 29.1339C116.172 29.4461 116.342 29.9144 116.541 30.5387C116.739 31.1631 116.945 31.908 117.157 32.7736C117.299 32.1634 117.462 31.5604 117.646 30.9644C117.845 30.3542 118.078 29.7441 118.348 29.1339L122.727 18.9812H127.745L117.157 40.3721Z" fill="white"/>
<path d="M150.067 29.7512H133.952C134.066 31.6384 134.626 33.1141 135.632 34.1784C136.638 35.2284 137.977 35.7534 139.65 35.7534C141.138 35.7534 142.378 35.4412 143.37 34.8169C144.362 34.1925 145.227 33.1851 145.964 31.7945L149.854 33.9655C148.721 35.9946 147.318 37.5058 145.645 38.4991C143.973 39.4924 142.01 39.989 139.756 39.989C136.525 39.989 133.952 39.0028 132.039 37.0305C130.126 35.0581 129.169 32.4259 129.169 29.1339C129.169 25.9696 130.154 23.3729 132.124 21.3438C134.108 19.3005 136.652 18.2788 139.756 18.2788C143.002 18.2788 145.532 19.2083 147.346 21.0671C149.16 22.926 150.067 25.5298 150.067 28.8785V29.7512ZM145.284 26.6437C145.099 25.1963 144.547 24.0966 143.625 23.3446C142.704 22.5783 141.443 22.1952 139.841 22.1952C138.325 22.1952 137.106 22.5641 136.185 23.302C135.263 24.0398 134.618 25.1537 134.25 26.6437H145.284Z" fill="white"/>
<path d="M155.106 39.1589V6.16797H159.719V39.1589H155.106Z" fill="white"/>
<path d="M166.543 39.1589V6.16797H171.157V39.1589H166.543Z" fill="white"/>
<path d="M177.364 10.2546C177.364 9.47416 177.648 8.80015 178.215 8.23256C178.796 7.66498 179.483 7.38118 180.277 7.38118C181.099 7.38118 181.779 7.65788 182.318 8.21128C182.871 8.75049 183.147 9.43159 183.147 10.2546C183.147 11.0776 182.871 11.7729 182.318 12.3405C181.765 12.8939 181.085 13.1706 180.277 13.1706C179.483 13.1706 178.796 12.8868 178.215 12.3192C177.648 11.7374 177.364 11.0492 177.364 10.2546ZM177.981 39.1589V18.9812H182.594V39.1589H177.981Z" fill="white"/>
<path d="M208.17 39.1589H203.556V36.5409C202.734 37.7045 201.77 38.5701 200.665 39.1376C199.574 39.7052 198.319 39.989 196.902 39.989C194.053 39.989 191.807 39.017 190.163 37.073C188.533 35.1149 187.718 32.4401 187.718 29.0488C187.718 25.8277 188.554 23.231 190.227 21.2587C191.899 19.2721 194.082 18.2788 196.774 18.2788C198.419 18.2788 199.822 18.6265 200.984 19.3218C202.16 20.0029 203.018 20.9891 203.556 22.2803V18.9812H208.17V39.1589ZM203.684 29.0062C203.684 26.9203 203.195 25.2956 202.217 24.1321C201.253 22.9685 199.9 22.3868 198.156 22.3868C196.413 22.3868 195.038 22.9898 194.032 24.1959C193.04 25.3879 192.544 27.0481 192.544 29.1765C192.544 31.3191 193.026 32.9722 193.989 34.1358C194.953 35.2993 196.314 35.8811 198.071 35.8811C199.73 35.8811 201.076 35.2497 202.111 33.9868C203.159 32.7239 203.684 31.0637 203.684 29.0062Z" fill="white"/>
<path d="M214.547 39.1589V18.9812H218.884V22.2803C219.806 20.8897 220.89 19.8752 222.137 19.2366C223.384 18.5981 224.901 18.2788 226.687 18.2788C228.189 18.2788 229.465 18.5201 230.513 19.0025C231.576 19.4708 232.406 20.1732 233.001 21.1097C233.355 21.6631 233.61 22.3087 233.766 23.0466C233.922 23.7844 234 25.0757 234 26.9203V39.1589H229.344V28.7934C229.344 26.1399 229.018 24.3804 228.366 23.5148C227.728 22.6351 226.588 22.1952 224.943 22.1952C223.866 22.1952 222.903 22.3938 222.052 22.7912C221.216 23.1885 220.557 23.749 220.075 24.4726C219.735 24.9551 219.494 25.5794 219.352 26.3457C219.225 27.0977 219.161 28.3038 219.161 29.964V39.1589H214.547Z" fill="white"/>
<path d="M14.443 33.2473L20.3596 39.08L26.2762 33.2473L20.3596 27.4147L14.443 33.2473ZM20.3596 4.94084V4.94961C18.6662 4.94961 16.9728 5.58696 15.6827 6.85873L15.6768 6.85289C14.3896 8.12466 13.7431 9.79697 13.7431 11.4693C13.7431 13.1445 14.3867 14.8139 15.6708 16.0798H15.6797L20.3596 20.6904L25.0366 16.0798H25.0455C26.3385 14.8051 26.985 13.1357 26.985 11.4693H26.9761C26.9761 9.7999 26.3296 8.13051 25.0395 6.85873C23.7405 5.58111 22.0471 4.94084 20.3596 4.94084ZM29.6868 36.6095L22.0649 44.1232L20.3596 45.8043L18.6543 44.1232L11.0325 36.6095L3.41057 44.1232L0 40.761L16.952 24.0526L12.2751 19.442L12.281 19.4362C10.0419 17.2317 8.92383 14.3461 8.92383 11.4693C8.92383 8.58952 10.0419 5.70683 12.2751 3.50534V3.49949C14.5083 1.29801 17.4354 0.195801 20.3596 0.195801V0.204572C23.2898 0.204572 26.2199 1.30385 28.4471 3.49949C30.6803 5.70098 31.7954 8.58659 31.7954 11.4722H31.7865C31.7865 14.3549 30.6714 17.2376 28.4412 19.4391L28.4471 19.4449L23.7702 24.0526L40.7193 40.761L37.3087 44.1232L29.6868 36.6095Z" fill="white"/>
</svg>
